<svg width="1080" height="1080" viewBox="0 0 1080 1080" fill="none" xmlns="http://www.w3.org/2000/svg">
<path d="M784.053 1030.67H295.947C274.95 1030.81 254.636 1023.21 238.892 1009.32C223.148 995.423 213.08 976.212 210.613 955.36L140.213 352.907C139.519 346.906 140.106 340.826 141.937 335.069C143.768 329.312 146.8 324.009 150.833 319.512C154.867 315.014 159.809 311.425 165.334 308.981C170.858 306.536 176.839 305.293 182.88 305.333H897.547C903.588 305.293 909.568 306.536 915.093 308.981C920.617 311.425 925.56 315.014 929.593 319.512C933.627 324.009 936.659 329.312 938.49 335.069C940.321 340.826 940.908 346.906 940.213 352.907L868.96 955.36C866.501 976.139 856.494 995.29 840.84 1009.17C825.186 1023.06 804.977 1030.71 784.053 1030.67Z" fill="url(#paint0_linear_7_3)"/>
<path d="M710.667 433.333C699.64 433.342 689.039 429.082 681.084 421.446C673.13 413.81 668.441 403.391 668 392.373V247.733C668.8 230.253 666.107 212.789 660.078 196.362C654.049 179.935 644.805 164.875 632.886 152.062C620.968 139.25 606.615 128.943 590.666 121.744C574.717 114.544 557.492 110.597 540 110.133C522.508 110.597 505.283 114.544 489.334 121.744C473.385 128.943 459.032 139.25 447.114 152.062C435.195 164.875 425.951 179.935 419.922 196.362C413.893 212.789 411.2 230.253 412 247.733V392.373C412 403.689 407.505 414.542 399.503 422.543C391.502 430.545 380.649 435.04 369.333 435.04C358.017 435.04 347.165 430.545 339.163 422.543C331.162 414.542 326.667 403.689 326.667 392.373V247.733C326.667 191.154 349.143 136.892 389.151 96.8839C429.158 56.8761 483.42 34.4 540 34.4C596.579 34.4 650.842 56.8761 690.849 96.8839C730.857 136.892 753.333 191.154 753.333 247.733V392.373C752.892 403.391 748.203 413.81 740.249 421.446C732.295 429.082 721.693 433.342 710.667 433.333Z" fill="url(#paint1_linear_7_3)"/>
<path d="M788.772 525.991V802.092C788.772 824.052 770.897 844.639 748.897 847.384L741.334 848.299C691.376 854.933 614.376 880.324 570.376 904.572C567.397 906.402 563.73 907.088 559.605 907.088V540.403C563.959 540.403 568.313 539.259 571.751 537.2L575.647 534.684C616.438 509.064 689.543 484.588 737.668 480.47H739.042C766.313 478.183 788.772 498.541 788.772 525.991Z" fill="url(#paint2_linear_7_3)"/>
<path d="M291.493 525.991V802.092C291.493 824.052 309.368 844.639 331.368 847.384L338.931 848.299C388.889 854.933 465.889 880.324 509.889 904.572C512.868 906.402 516.535 907.088 520.66 907.088V540.403C516.306 540.403 511.952 539.259 508.514 537.2L504.618 534.684C463.827 509.064 390.722 484.588 342.597 480.47H341.222C313.952 478.183 291.493 498.541 291.493 525.991Z" fill="url(#paint3_linear_7_3)"/>
<rect x="520.395" y="540.59" width="40.2697" height="366" fill="url(#paint4_linear_7_3)"/>
<defs>
<linearGradient id="paint0_linear_7_3" x1="540.213" y1="305.332" x2="540.213" y2="1030.67" gradientUnits="userSpaceOnUse">
<stop stop-color="white"/>
<stop offset="0.998621" stop-color="white" stop-opacity="0.65"/>
</linearGradient>
<linearGradient id="paint1_linear_7_3" x1="540" y1="34.4" x2="540" y2="435.04" gradientUnits="userSpaceOnUse">
<stop stop-color="#004EAF"/>
<stop offset="1" stop-color="#0071FF"/>
</linearGradient>
<linearGradient id="paint2_linear_7_3" x1="674.188" y1="480.295" x2="674.188" y2="907.088" gradientUnits="userSpaceOnUse">
<stop stop-color="#004EAF"/>
<stop offset="1" stop-color="#0071FF"/>
</linearGradient>
<linearGradient id="paint3_linear_7_3" x1="406.077" y1="480.295" x2="406.077" y2="907.088" gradientUnits="userSpaceOnUse">
<stop stop-color="#004EAF"/>
<stop offset="1" stop-color="#0071FF"/>
</linearGradient>
<linearGradient id="paint4_linear_7_3" x1="540.53" y1="540.59" x2="540.53" y2="906.59" gradientUnits="userSpaceOnUse">
<stop stop-color="#0071FF"/>
<stop offset="1" stop-color="#67ABFF" stop-opacity="0.98"/>
</linearGradient>
</defs>
</svg>
