<svg width="1080" height="1080" viewBox="0 0 1080 1080" fill="none" xmlns="http://www.w3.org/2000/svg">
<path d="M730.667 923.333H349.333C332.929 923.447 317.059 917.508 304.759 906.654C292.46 895.799 284.594 880.791 282.667 864.5L227.667 393.833C227.124 389.145 227.583 384.395 229.013 379.897C230.443 375.4 232.812 371.257 235.964 367.744C239.115 364.23 242.976 361.426 247.292 359.516C251.608 357.607 256.281 356.635 261 356.667H819.333C824.053 356.635 828.725 357.607 833.041 359.516C837.357 361.426 841.219 364.23 844.37 367.744C847.521 371.257 849.89 375.4 851.32 379.897C852.751 384.395 853.209 389.145 852.667 393.833L797 864.5C795.079 880.734 787.261 895.696 775.032 906.542C762.802 917.389 747.013 923.365 730.667 923.333Z" fill="white"/>
<path d="M673.333 456.667C664.719 456.674 656.437 453.345 650.222 447.38C644.008 441.414 640.345 433.274 640 424.667V311.667C640.625 298.01 638.521 284.366 633.811 271.533C629.101 258.699 621.879 246.933 612.567 236.924C603.256 226.914 592.043 218.862 579.583 213.237C567.122 207.613 553.666 204.529 540 204.167C526.334 204.529 512.878 207.613 500.417 213.237C487.957 218.862 476.744 226.914 467.433 236.924C458.121 246.933 450.899 258.699 446.189 271.533C441.479 284.366 439.375 298.01 440 311.667V424.667C440 433.507 436.488 441.986 430.237 448.237C423.986 454.488 415.507 458 406.667 458C397.826 458 389.348 454.488 383.096 448.237C376.845 441.986 373.333 433.507 373.333 424.667V311.667C373.333 267.464 390.893 225.072 422.149 193.816C453.405 162.559 495.797 145 540 145C584.203 145 626.595 162.559 657.851 193.816C689.107 225.072 706.667 267.464 706.667 311.667V424.667C706.322 433.274 702.659 441.414 696.444 447.38C690.23 453.345 681.948 456.674 673.333 456.667Z" fill="#03008D"/>
<path d="M734.333 530.708V746.459C734.333 763.619 720.423 779.706 703.303 781.851L697.418 782.566C658.542 787.75 598.622 807.591 564.382 826.539C562.063 827.969 559.21 828.505 556 828.505V541.97C559.388 541.97 562.777 541.076 565.452 539.467L568.483 537.501C600.227 517.481 657.115 498.355 694.565 495.137H695.635C716.857 493.35 734.333 509.258 734.333 530.708Z" fill="#004EAF"/>
<path d="M347 530.708V746.459C347 763.619 360.91 779.706 378.03 781.851L383.915 782.566C422.792 787.75 482.712 807.591 516.952 826.539C519.27 827.969 522.123 828.505 525.333 828.505V541.97C521.945 541.97 518.557 541.076 515.882 539.467L512.85 537.501C481.107 517.481 424.218 498.355 386.768 495.137H385.698C364.477 493.35 347 509.258 347 530.708Z" fill="#004EAF"/>
<rect x="525" y="542" width="31" height="286" fill="#7D8AFB"/>
<path d="M42 41H1038V39H42V41ZM1039 42V1038H1041V42H1039ZM1038 1039H42V1041H1038V1039ZM41 1038V42H39V1038H41ZM42 1039C41.4477 1039 41 1038.55 41 1038H39C39 1039.66 40.3431 1041 42 1041V1039ZM1039 1038C1039 1038.55 1038.55 1039 1038 1039V1041C1039.66 1041 1041 1039.66 1041 1038H1039ZM1038 41C1038.55 41 1039 41.4477 1039 42H1041C1041 40.3432 1039.66 39 1038 39V41ZM42 39C40.3432 39 39 40.3431 39 42H41C41 41.4477 41.4477 41 42 41V39Z" fill="white" fill-opacity="0.1"/>
<rect x="40" y="8" width="88.8125" height="26" rx="3" fill="#404040"/>
<rect x="40.5" y="8.5" width="87.8125" height="25" rx="2.5" stroke="black" stroke-opacity="0.14902"/>
<path d="M44.9688 24V16H45.8906V18.9531H45.9688C46.0365 18.849 46.1302 18.7161 46.25 18.5547C46.3724 18.3906 46.5469 18.2448 46.7734 18.1172C47.0026 17.987 47.3125 17.9219 47.7031 17.9219C48.2083 17.9219 48.6536 18.0482 49.0391 18.3008C49.4245 18.5534 49.7253 18.9115 49.9414 19.375C50.1576 19.8385 50.2656 20.3854 50.2656 21.0156C50.2656 21.651 50.1576 22.2018 49.9414 22.668C49.7253 23.1315 49.4258 23.4909 49.043 23.7461C48.6602 23.9987 48.2188 24.125 47.7188 24.125C47.3333 24.125 47.0247 24.0612 46.793 23.9336C46.5612 23.8034 46.3828 23.6562 46.2578 23.4922C46.1328 23.3255 46.0365 23.1875 45.9688 23.0781H45.8594V24H44.9688ZM45.875 21C45.875 21.4531 45.9414 21.8529 46.0742 22.1992C46.207 22.543 46.401 22.8125 46.6563 23.0078C46.9115 23.2005 47.224 23.2969 47.5938 23.2969C47.9792 23.2969 48.3008 23.1953 48.5586 22.9922C48.819 22.7865 49.0143 22.5104 49.1445 22.1641C49.2773 21.8151 49.3438 21.4271 49.3438 21C49.3438 20.5781 49.2786 20.1979 49.1484 19.8594C49.0208 19.5182 48.8268 19.2487 48.5664 19.0508C48.3086 18.8503 47.9844 18.75 47.5938 18.75C47.2188 18.75 46.9036 18.8451 46.6484 19.0352C46.3932 19.2227 46.2005 19.4857 46.0703 19.8242C45.9401 20.1602 45.875 20.5521 45.875 21ZM54.1133 24.125C53.5716 24.125 53.0964 23.9961 52.6875 23.7383C52.2813 23.4805 51.9635 23.1198 51.7344 22.6562C51.5078 22.1927 51.3945 21.651 51.3945 21.0312C51.3945 20.4062 51.5078 19.8607 51.7344 19.3945C51.9635 18.9284 52.2813 18.5664 52.6875 18.3086C53.0964 18.0508 53.5716 17.9219 54.1133 17.9219C54.6549 17.9219 55.1289 18.0508 55.5352 18.3086C55.944 18.5664 56.2617 18.9284 56.4883 19.3945C56.7174 19.8607 56.832 20.4062 56.832 21.0312C56.832 21.651 56.7174 22.1927 56.4883 22.6562C56.2617 23.1198 55.944 23.4805 55.5352 23.7383C55.1289 23.9961 54.6549 24.125 54.1133 24.125ZM54.1133 23.2969C54.5247 23.2969 54.8633 23.1914 55.1289 22.9805C55.3945 22.7695 55.5911 22.4922 55.7188 22.1484C55.8464 21.8047 55.9102 21.4323 55.9102 21.0312C55.9102 20.6302 55.8464 20.2565 55.7188 19.9102C55.5911 19.5638 55.3945 19.2839 55.1289 19.0703C54.8633 18.8568 54.5247 18.75 54.1133 18.75C53.7018 18.75 53.3633 18.8568 53.0977 19.0703C52.832 19.2839 52.6354 19.5638 52.5078 19.9102C52.3802 20.2565 52.3164 20.6302 52.3164 21.0312C52.3164 21.4323 52.3802 21.8047 52.5078 22.1484C52.6354 22.4922 52.832 22.7695 53.0977 22.9805C53.3633 23.1914 53.7018 23.2969 54.1133 23.2969ZM60.6768 24.125C60.1351 24.125 59.6598 23.9961 59.251 23.7383C58.8447 23.4805 58.527 23.1198 58.2979 22.6562C58.0713 22.1927 57.958 21.651 57.958 21.0312C57.958 20.4062 58.0713 19.8607 58.2979 19.3945C58.527 18.9284 58.8447 18.5664 59.251 18.3086C59.6598 18.0508 60.1351 17.9219 60.6768 17.9219C61.2184 17.9219 61.6924 18.0508 62.0986 18.3086C62.5075 18.5664 62.8252 18.9284 63.0518 19.3945C63.2809 19.8607 63.3955 20.4062 63.3955 21.0312C63.3955 21.651 63.2809 22.1927 63.0518 22.6562C62.8252 23.1198 62.5075 23.4805 62.0986 23.7383C61.6924 23.9961 61.2184 24.125 60.6768 24.125ZM60.6768 23.2969C61.0882 23.2969 61.4268 23.1914 61.6924 22.9805C61.958 22.7695 62.1546 22.4922 62.2822 22.1484C62.4098 21.8047 62.4736 21.4323 62.4736 21.0312C62.4736 20.6302 62.4098 20.2565 62.2822 19.9102C62.1546 19.5638 61.958 19.2839 61.6924 19.0703C61.4268 18.8568 61.0882 18.75 60.6768 18.75C60.2653 18.75 59.9268 18.8568 59.6611 19.0703C59.3955 19.2839 59.1989 19.5638 59.0713 19.9102C58.9437 20.2565 58.8799 20.6302 58.8799 21.0312C58.8799 21.4323 58.9437 21.8047 59.0713 22.1484C59.1989 22.4922 59.3955 22.7695 59.6611 22.9805C59.9268 23.1914 60.2653 23.2969 60.6768 23.2969ZM65.6621 21.8125L65.6465 20.6719H65.834L68.459 18H69.5996L66.8027 20.8281H66.7246L65.6621 21.8125ZM64.8027 24V16H65.7246V24H64.8027ZM68.6152 24L66.2715 21.0312L66.9277 20.3906L69.7871 24H68.6152ZM73.7188 20.1406V21H70.2187V20.1406H73.7188ZM79.5908 19.3437L78.7627 19.5781C78.7106 19.4401 78.6338 19.306 78.5322 19.1758C78.4333 19.043 78.2979 18.9336 78.126 18.8477C77.9541 18.7617 77.734 18.7187 77.4658 18.7187C77.0986 18.7187 76.7926 18.8034 76.5479 18.9727C76.3057 19.1393 76.1846 19.3516 76.1846 19.6094C76.1846 19.8385 76.2679 20.0195 76.4346 20.1523C76.6012 20.2852 76.8617 20.3958 77.2158 20.4844L78.1064 20.7031C78.6429 20.8333 79.0426 21.0326 79.3057 21.3008C79.5687 21.5664 79.7002 21.9089 79.7002 22.3281C79.7002 22.6719 79.6012 22.9792 79.4033 23.25C79.208 23.5208 78.9346 23.7344 78.583 23.8906C78.2314 24.0469 77.8226 24.125 77.3564 24.125C76.7445 24.125 76.238 23.9922 75.8369 23.7266C75.4359 23.4609 75.182 23.0729 75.0752 22.5625L75.9502 22.3437C76.0335 22.6667 76.1911 22.9089 76.4229 23.0703C76.6572 23.2318 76.9632 23.3125 77.3408 23.3125C77.7705 23.3125 78.1117 23.2214 78.3643 23.0391C78.6195 22.8542 78.7471 22.6328 78.7471 22.375C78.7471 22.1667 78.6742 21.9922 78.5283 21.8516C78.3825 21.7083 78.1585 21.6016 77.8564 21.5312L76.8564 21.2969C76.307 21.1667 75.9033 20.9648 75.6455 20.6914C75.3903 20.4154 75.2627 20.0703 75.2627 19.6562C75.2627 19.3177 75.3577 19.0182 75.5479 18.7578C75.7406 18.4974 76.0023 18.293 76.333 18.1445C76.6663 17.9961 77.0439 17.9219 77.4658 17.9219C78.0596 17.9219 78.5257 18.0521 78.8643 18.3125C79.2054 18.5729 79.4476 18.9167 79.5908 19.3437ZM82.0098 20.3906V24H81.0879V16H82.0098V18.9375H82.0879C82.2285 18.6276 82.4395 18.3815 82.7207 18.1992C83.0046 18.0143 83.3822 17.9219 83.8535 17.9219C84.2624 17.9219 84.6204 18.0039 84.9277 18.168C85.235 18.3294 85.4733 18.5781 85.6426 18.9141C85.8145 19.2474 85.9004 19.6719 85.9004 20.1875V24H84.9785V20.25C84.9785 19.7734 84.8548 19.4049 84.6074 19.1445C84.3626 18.8815 84.0228 18.75 83.5879 18.75C83.2858 18.75 83.015 18.8138 82.7754 18.9414C82.5384 19.069 82.3509 19.2552 82.2129 19.5C82.0775 19.7448 82.0098 20.0417 82.0098 20.3906ZM90.0244 24.125C89.4827 24.125 89.0075 23.9961 88.5986 23.7383C88.1924 23.4805 87.8747 23.1198 87.6455 22.6562C87.4189 22.1927 87.3057 21.651 87.3057 21.0312C87.3057 20.4062 87.4189 19.8607 87.6455 19.3945C87.8747 18.9284 88.1924 18.5664 88.5986 18.3086C89.0075 18.0508 89.4827 17.9219 90.0244 17.9219C90.5661 17.9219 91.04 18.0508 91.4463 18.3086C91.8551 18.5664 92.1729 18.9284 92.3994 19.3945C92.6286 19.8607 92.7432 20.4062 92.7432 21.0312C92.7432 21.651 92.6286 22.1927 92.3994 22.6562C92.1729 23.1198 91.8551 23.4805 91.4463 23.7383C91.04 23.9961 90.5661 24.125 90.0244 24.125ZM90.0244 23.2969C90.4359 23.2969 90.7744 23.1914 91.04 22.9805C91.3057 22.7695 91.5023 22.4922 91.6299 22.1484C91.7575 21.8047 91.8213 21.4323 91.8213 21.0312C91.8213 20.6302 91.7575 20.2565 91.6299 19.9102C91.5023 19.5638 91.3057 19.2839 91.04 19.0703C90.7744 18.8568 90.4359 18.75 90.0244 18.75C89.613 18.75 89.2744 18.8568 89.0088 19.0703C88.7432 19.2839 88.5465 19.5638 88.4189 19.9102C88.2913 20.2565 88.2275 20.6302 88.2275 21.0312C88.2275 21.4323 88.2913 21.8047 88.4189 22.1484C88.5465 22.4922 88.7432 22.7695 89.0088 22.9805C89.2744 23.1914 89.613 23.2969 90.0244 23.2969ZM94.1504 26.25V18H95.041V18.9531H95.1504C95.2181 18.849 95.3118 18.7161 95.4316 18.5547C95.554 18.3906 95.7285 18.2448 95.9551 18.1172C96.1842 17.987 96.4941 17.9219 96.8848 17.9219C97.39 17.9219 97.8353 18.0482 98.2207 18.3008C98.6061 18.5534 98.9069 18.9115 99.123 19.375C99.3392 19.8385 99.4473 20.3854 99.4473 21.0156C99.4473 21.651 99.3392 22.2018 99.123 22.668C98.9069 23.1315 98.6074 23.4909 98.2246 23.7461C97.8418 23.9987 97.4004 24.125 96.9004 24.125C96.515 24.125 96.2064 24.0612 95.9746 23.9336C95.7428 23.8034 95.5645 23.6562 95.4395 23.4922C95.3145 23.3255 95.2181 23.1875 95.1504 23.0781H95.0723V26.25H94.1504ZM95.0566 21C95.0566 21.4531 95.123 21.8529 95.2559 22.1992C95.3887 22.543 95.5827 22.8125 95.8379 23.0078C96.0931 23.2005 96.4056 23.2969 96.7754 23.2969C97.1608 23.2969 97.4824 23.1953 97.7402 22.9922C98.0007 22.7865 98.196 22.5104 98.3262 22.1641C98.459 21.8151 98.5254 21.4271 98.5254 21C98.5254 20.5781 98.4603 20.1979 98.3301 19.8594C98.2025 19.5182 98.0085 19.2487 97.748 19.0508C97.4902 18.8503 97.166 18.75 96.7754 18.75C96.4004 18.75 96.0853 18.8451 95.8301 19.0352C95.5749 19.2227 95.3822 19.4857 95.252 19.8242C95.1217 20.1602 95.0566 20.5521 95.0566 21ZM104.291 20.1406V21H100.791V20.1406H104.291ZM106.038 24V16H106.96V18.9531H107.038C107.106 18.849 107.2 18.7161 107.319 18.5547C107.442 18.3906 107.616 18.2448 107.843 18.1172C108.072 17.987 108.382 17.9219 108.772 17.9219C109.278 17.9219 109.723 18.0482 110.108 18.3008C110.494 18.5534 110.795 18.9115 111.011 19.375C111.227 19.8385 111.335 20.3854 111.335 21.0156C111.335 21.651 111.227 22.2018 111.011 22.668C110.795 23.1315 110.495 23.4909 110.112 23.7461C109.729 23.9987 109.288 24.125 108.788 24.125C108.403 24.125 108.094 24.0612 107.862 23.9336C107.631 23.8034 107.452 23.6562 107.327 23.4922C107.202 23.3255 107.106 23.1875 107.038 23.0781H106.929V24H106.038ZM106.944 21C106.944 21.4531 107.011 21.8529 107.144 22.1992C107.276 22.543 107.47 22.8125 107.726 23.0078C107.981 23.2005 108.293 23.2969 108.663 23.2969C109.049 23.2969 109.37 23.1953 109.628 22.9922C109.888 22.7865 110.084 22.5104 110.214 22.1641C110.347 21.8151 110.413 21.4271 110.413 21C110.413 20.5781 110.348 20.1979 110.218 19.8594C110.09 19.5182 109.896 19.2487 109.636 19.0508C109.378 18.8503 109.054 18.75 108.663 18.75C108.288 18.75 107.973 18.8451 107.718 19.0352C107.463 19.2227 107.27 19.4857 107.14 19.8242C107.009 20.1602 106.944 20.5521 106.944 21ZM114.511 24.1406C114.131 24.1406 113.785 24.069 113.476 23.9258C113.166 23.7799 112.92 23.5703 112.737 23.2969C112.555 23.0208 112.464 22.6875 112.464 22.2969C112.464 21.9531 112.532 21.6745 112.667 21.4609C112.802 21.2448 112.983 21.0755 113.21 20.9531C113.437 20.8307 113.687 20.7396 113.96 20.6797C114.236 20.6172 114.513 20.5677 114.792 20.5313C115.157 20.4844 115.452 20.4492 115.679 20.4258C115.908 20.3997 116.075 20.3568 116.179 20.2969C116.285 20.237 116.339 20.1328 116.339 19.9844V19.9531C116.339 19.5677 116.233 19.2682 116.022 19.0547C115.814 18.8411 115.498 18.7344 115.073 18.7344C114.633 18.7344 114.288 18.8307 114.038 19.0234C113.788 19.2161 113.612 19.4219 113.511 19.6406L112.636 19.3281C112.792 18.9635 113 18.6797 113.261 18.4766C113.524 18.2708 113.81 18.1276 114.12 18.0469C114.433 17.9635 114.74 17.9219 115.042 17.9219C115.235 17.9219 115.456 17.9453 115.706 17.9922C115.959 18.0365 116.202 18.1289 116.437 18.2695C116.674 18.4102 116.87 18.6224 117.026 18.9062C117.183 19.1901 117.261 19.5703 117.261 20.0469V24H116.339V23.1875H116.292C116.229 23.3177 116.125 23.457 115.979 23.6055C115.834 23.7539 115.64 23.8802 115.397 23.9844C115.155 24.0885 114.86 24.1406 114.511 24.1406ZM114.651 23.3125C115.016 23.3125 115.323 23.2409 115.573 23.0977C115.826 22.9544 116.016 22.7695 116.144 22.543C116.274 22.3164 116.339 22.0781 116.339 21.8281V20.9844C116.3 21.0312 116.214 21.0742 116.081 21.1133C115.951 21.1497 115.8 21.1823 115.628 21.2109C115.459 21.237 115.293 21.2604 115.132 21.2812C114.973 21.2995 114.844 21.3151 114.745 21.3281C114.506 21.3594 114.282 21.4102 114.073 21.4805C113.868 21.5482 113.701 21.651 113.573 21.7891C113.448 21.9245 113.386 22.1094 113.386 22.3437C113.386 22.6641 113.504 22.9062 113.741 23.0703C113.981 23.2318 114.284 23.3125 114.651 23.3125ZM121.365 26.375C120.92 26.375 120.537 26.3177 120.217 26.2031C119.896 26.0911 119.63 25.9427 119.416 25.7578C119.205 25.5755 119.037 25.3802 118.912 25.1719L119.646 24.6563C119.73 24.7656 119.835 24.8906 119.963 25.0312C120.09 25.1745 120.265 25.2982 120.486 25.4023C120.71 25.5091 121.003 25.5625 121.365 25.5625C121.85 25.5625 122.249 25.4453 122.564 25.2109C122.88 24.9766 123.037 24.6094 123.037 24.1094V22.8906H122.959C122.891 23 122.795 23.1354 122.67 23.2969C122.548 23.4557 122.37 23.5977 122.139 23.7227C121.91 23.8451 121.6 23.9062 121.209 23.9062C120.725 23.9062 120.29 23.7917 119.904 23.5625C119.521 23.3333 119.218 23 118.994 22.5625C118.773 22.125 118.662 21.5937 118.662 20.9687C118.662 20.3542 118.77 19.819 118.986 19.3633C119.202 18.9049 119.503 18.5508 119.889 18.3008C120.274 18.0482 120.719 17.9219 121.225 17.9219C121.615 17.9219 121.925 17.987 122.154 18.1172C122.386 18.2448 122.563 18.3906 122.686 18.5547C122.811 18.7161 122.907 18.849 122.975 18.9531H123.068V18H123.959V24.1719C123.959 24.6875 123.842 25.1068 123.607 25.4297C123.376 25.7552 123.063 25.9935 122.67 26.1445C122.279 26.2982 121.844 26.375 121.365 26.375ZM121.334 23.0781C121.704 23.0781 122.016 22.9935 122.271 22.8242C122.527 22.6549 122.721 22.4115 122.854 22.0938C122.986 21.776 123.053 21.3958 123.053 20.9531C123.053 20.5208 122.988 20.1393 122.857 19.8086C122.727 19.4779 122.535 19.2187 122.279 19.0312C122.024 18.8437 121.709 18.75 121.334 18.75C120.943 18.75 120.618 18.849 120.357 19.0469C120.1 19.2448 119.906 19.5104 119.775 19.8438C119.648 20.1771 119.584 20.5469 119.584 20.9531C119.584 21.3698 119.649 21.7383 119.779 22.0586C119.912 22.3763 120.107 22.6263 120.365 22.8086C120.626 22.9883 120.949 23.0781 121.334 23.0781Z" fill="white"/>
</svg>
